# xmcd
# Copyright (C) 1995-1998 Ti Kan
#
# Track frame offsets:
#       150
#       15409
#       25642
#       39672
#       53123
#       65234
#       79136
#       92775
#       106023
#       120097
#       132035
#       145499
#       160362
#       172338
#       187745
#
# Disc length: 2678 seconds
#
# Revision: 0
# Processed by: cddbd v1.5.2PL0 Copyright (c) Steve Scherf et al.
# Submitted via: CD-Transfer v1.0
#
DISCID=bf0a740f
DTITLE=Alpenland/Judith Und Mel - 
DYEAR=1900
DGENRE=
TTITLE0=Land Im Norden
TTITLE1=Viel Glück
TTITLE2=So Viel Liebe
TTITLE3=Zauberer Der Nacht
TTITLE4=Komm Setz' Dich Zu Mir
TTITLE5=Lieber Schatz
TTITLE6=Mein Hawyaii Heisst Norderney
TTITLE7=Wenn Die Glocken Singen
TTITLE8=Wir Sind Deine Eltern
TTITLE9=Von Ganzem Herzen
TTITLE10=Du Für Immer
TTITLE11=Verzeihung Ist Ein Schweres Wort
TTITLE12=Wir
TTITLE13=Komm Kuscheln
TTITLE14=Heimatland
EXTD=
EXTT0=
EXTT1=
EXTT2=
EXTT3=
EXTT4=
EXTT5=
EXTT6=
EXTT7=
EXTT8=
EXTT9=
EXTT10=
EXTT11=
EXTT12=
EXTT13=
EXTT14=
PLAYORDER=
